<!--
  book-contact.svg - Contact Book Spine
  WHAT: Forest green leather spine with gold "CONTACT" lettering
  WHY:  Visual asset for Contact book on the bookshelf
-->
<svg xmlns="http://www.w3.org/2000/svg" width="52" height="260" viewBox="0 0 52 260">
  <defs>
    <linearGradient id="spine-contact" x1="0%" y1="0%" x2="100%" y2="0%">
      <stop offset="0%" style="stop-color:#2d5940"/>
      <stop offset="50%" style="stop-color:#3d7a57"/>
      <stop offset="100%" style="stop-color:#2a4a3a"/>
    </linearGradient>
    <linearGradient id="copper" x1="0%" y1="0%" x2="100%" y2="0%">
      <stop offset="0%" style="stop-color:#8b4513"/>
      <stop offset="50%" style="stop-color:#cd853f"/>
      <stop offset="100%" style="stop-color:#8b4513"/>
    </linearGradient>
    <!-- Center-right book: light from top-center, slight bias to left -->
    <radialGradient id="corner-light-contact" cx="40%" cy="0%" r="120%" fx="40%" fy="0%">
      <stop offset="0%" style="stop-color:rgba(255,220,180,0.15)"/>
      <stop offset="35%" style="stop-color:rgba(255,200,150,0.06)"/>
      <stop offset="65%" style="stop-color:rgba(0,0,0,0)"/>
      <stop offset="100%" style="stop-color:rgba(0,0,0,0.2)"/>
    </radialGradient>
  </defs>

  <!-- Main spine -->
  <rect width="52" height="260" fill="url(#spine-contact)" rx="2"/>
  <rect width="52" height="260" fill="url(#corner-light-contact)" rx="2"/>

  <!-- Texture -->
  <line x1="2" y1="0" x2="2" y2="260" stroke="#15291f" stroke-width="0.5" opacity="0.5"/>
  <line x1="50" y1="0" x2="50" y2="260" stroke="#244535" stroke-width="0.5" opacity="0.3"/>

  <!-- Top ornate band -->
  <rect x="4" y="8" width="44" height="3" fill="url(#copper)" opacity="0.85"/>
  <path d="M10 18 Q26 24 42 18" fill="none" stroke="url(#copper)" stroke-width="1" opacity="0.7"/>

  <!-- Leaf ornament -->
  <path d="M26 32 Q32 44 26 56 Q20 44 26 32" fill="url(#copper)" opacity="0.6"/>
  <line x1="26" y1="32" x2="26" y2="56" stroke="url(#copper)" stroke-width="0.5" opacity="0.8"/>

  <!-- Title -->
  <text x="26" y="80" font-family="Georgia, serif" font-size="9" fill="#cd853f" text-anchor="middle" font-weight="bold">C</text>
  <text x="26" y="94" font-family="Georgia, serif" font-size="9" fill="#cd853f" text-anchor="middle" font-weight="bold">O</text>
  <text x="26" y="108" font-family="Georgia, serif" font-size="9" fill="#cd853f" text-anchor="middle" font-weight="bold">N</text>
  <text x="26" y="122" font-family="Georgia, serif" font-size="9" fill="#cd853f" text-anchor="middle" font-weight="bold">T</text>
  <text x="26" y="136" font-family="Georgia, serif" font-size="9" fill="#cd853f" text-anchor="middle" font-weight="bold">A</text>
  <text x="26" y="150" font-family="Georgia, serif" font-size="9" fill="#cd853f" text-anchor="middle" font-weight="bold">C</text>
  <text x="26" y="164" font-family="Georgia, serif" font-size="9" fill="#cd853f" text-anchor="middle" font-weight="bold">T</text>

  <!-- Center wreath -->
  <circle cx="26" cy="195" r="14" fill="none" stroke="url(#copper)" stroke-width="1" opacity="0.5"/>
  <circle cx="26" cy="195" r="9" fill="none" stroke="url(#copper)" stroke-width="0.5" opacity="0.6"/>

  <!-- Bottom leaf -->
  <path d="M26 220 Q32 232 26 244 Q20 232 26 220" fill="url(#copper)" opacity="0.6"/>

  <!-- Bottom band -->
  <path d="M10 248 Q26 242 42 248" fill="none" stroke="url(#copper)" stroke-width="1" opacity="0.7"/>
  <rect x="4" y="252" width="44" height="3" fill="url(#copper)" opacity="0.85"/>
</svg>